<?xml version="1.0" standalone="no"?>
<!DOCTYPE svg PUBLIC "-//W3C//DTD SVG 1.1//EN" "http://www.w3.org/Graphics/SVG/1.1/DTD/svg11.dtd" >
<svg xmlns="http://www.w3.org/2000/svg">
<metadata>Generated by IcoMoon</metadata>
<defs>
<font id="Rentificial" horiz-adv-x="1024">
<font-face units-per-em="1024" ascent="960" descent="-64" />
<missing-glyph horiz-adv-x="1024" />
<glyph unicode="&#x20;" horiz-adv-x="512" d="" />
<glyph unicode="&#xe900;" glyph-name="arrow-down" horiz-adv-x="1317" d="M1287.285 843.553l-643.643-830.312-643.643 830.312h1287.285z" />
<glyph unicode="&#xe901;" glyph-name="arrow-up" horiz-adv-x="1317" d="M0 13.242l643.643 830.312 643.643-830.312h-1287.285z" />
<glyph unicode="&#xe902;" glyph-name="calendar" horiz-adv-x="922" d="M153.6 784.793c-35.346 0-64-28.654-64-64v-593.612c0-35.348 28.654-64 64-64h593.613c35.348 0 64 28.652 64 64v593.612c0 35.346-28.652 64-64 64h-593.613zM12.8 720.793c0 77.762 63.038 140.8 140.8 140.8h593.613c77.763 0 140.8-63.038 140.8-140.8v-593.612c0-77.763-63.037-140.8-140.8-140.8h-593.613c-77.762 0-140.8 63.037-140.8 140.8v593.612zM627.814 941.823c21.207 0 38.4-17.192 38.4-38.4v-177.408c0-21.208-17.193-38.4-38.4-38.4s-38.4 17.192-38.4 38.4v177.408c0 21.208 17.193 38.4 38.4 38.4zM272.998 941.823c21.208 0 38.4-17.192 38.4-38.4v-177.408c0-21.208-17.192-38.4-38.4-38.4s-38.4 17.192-38.4 38.4v177.408c0 21.208 17.192 38.4 38.4 38.4zM12.8 548.556c0 21.208 17.192 38.4 38.4 38.4h798.413c21.207 0 38.4-17.192 38.4-38.4s-17.193-38.4-38.4-38.4h-798.413c-21.208 0-38.4 17.192-38.4 38.4z" />
<glyph unicode="&#xe903;" glyph-name="case" d="M107.789 612.163c-14.882 0-26.947-12.065-26.947-26.947v-538.947c0-14.886 12.065-26.947 26.947-26.947h808.421c14.88 0 26.947 12.062 26.947 26.947v538.947c0 14.882-12.067 26.947-26.947 26.947h-808.421zM0 585.215c0 59.531 48.259 107.789 107.789 107.789h808.421c59.532 0 107.789-48.259 107.789-107.789v-538.947c0-59.532-48.257-107.789-107.789-107.789h-808.421c-59.531 0-107.789 48.257-107.789 107.789v538.947zM323.368 827.742c-7.147 0-14.001-2.839-19.054-7.893s-7.893-11.908-7.893-19.054v-80.842h431.158v80.842c0 3.539-0.695 7.043-2.053 10.312-1.353 3.27-3.336 6.24-5.837 8.742-2.506 2.502-5.476 4.487-8.747 5.842-3.266 1.354-6.769 2.051-10.31 2.051h-377.263zM247.15 877.013c20.214 20.215 47.631 31.571 76.218 31.571h377.263c14.153 0 28.171-2.788 41.251-8.205 13.075-5.417 24.959-13.357 34.967-23.366s17.947-21.892 23.369-34.969c5.416-13.078 8.203-27.095 8.203-41.249v-80.842c0-21.441-8.515-42.003-23.676-57.164s-35.727-23.678-57.166-23.678h-431.158c-21.44 0-42.003 8.517-57.164 23.678s-23.678 35.724-23.678 57.164v80.842c0 28.587 11.356 56.004 31.571 76.218z" />
<glyph unicode="&#xe904;" glyph-name="check" horiz-adv-x="1229" d="M46.564 483.001c39.99 39.99 104.826 39.99 144.815 0l218.885-218.885 639.202 639.207c39.997 39.99 104.827 39.99 144.824 0 39.987-39.99 39.987-104.826 0-144.816l-784.027-784.022-363.7 363.7c-39.99 39.989-39.99 104.826 0 144.815z" />
<glyph unicode="&#xe905;" glyph-name="check-circle" horiz-adv-x="1097" d="M683.542 816.105c-77.787 34.59-164.672 43.111-247.698 24.293s-157.744-63.968-213.017-128.716c-55.272-64.749-88.136-145.627-93.691-230.578s16.495-169.42 62.864-240.816c46.369-71.395 114.572-125.893 194.439-155.363s167.122-32.336 248.752-8.17c81.63 24.166 153.266 74.064 204.218 142.263 50.951 68.192 78.497 151.024 78.533 236.148v0 41.399c0 30.297 24.561 54.857 54.857 54.857s54.857-24.561 54.857-54.857v-41.399c-0.037-108.788-35.24-214.669-100.359-301.816-65.112-87.15-156.65-150.916-260.963-181.797s-215.813-27.216-317.874 10.445c-102.061 37.654-189.217 107.293-248.471 198.532-59.254 91.234-87.432 199.177-80.333 307.732s49.095 211.91 119.726 294.651c70.631 82.741 166.113 140.436 272.21 164.484s217.125 13.158 316.528-31.043c27.679-12.31 40.143-44.731 27.833-72.414s-44.728-40.146-72.411-27.836zM1011.28 853.765c21.431-21.413 21.453-56.146 0.037-77.58l-449.682-450.121c-10.286-10.296-24.242-16.083-38.796-16.086s-28.513 5.777-38.803 16.067l-134.875 134.875c-21.424 21.424-21.424 56.157 0 77.58s56.156 21.424 77.58 0l96.067-96.067 410.89 411.293c21.416 21.434 56.152 21.451 77.583 0.038z" />
<glyph unicode="&#xe906;" glyph-name="cog" d="M512 528c-44.183 0-80-35.817-80-80s35.817-80 80-80c44.183 0 80 35.817 80 80s-35.817 80-80 80zM336 448c0 97.202 78.798 176 176 176s176-78.798 176-176c0-97.202-78.798-176-176-176s-176 78.798-176 176zM512.096 848c-8.865 0-17.37-3.523-23.644-9.798s-9.802-14.793-9.802-23.677v-7.343c-0.086-22.464-6.738-44.414-19.138-63.147s-30.007-33.432-50.656-42.284c-4.017-1.723-8.242-2.884-12.555-3.46-18.492-6.305-38.343-7.82-57.677-4.318-22.661 4.104-43.569 14.908-60.027 31.016l-0.374 0.367-2.426 2.431c-0.666 0.666-1.312 1.352-1.938 2.056-3.032 3.412-6.728 6.168-10.86 8.099s-8.616 2.995-13.173 3.13c-4.558 0.134-9.095-0.665-13.334-2.349s-8.090-4.217-11.316-7.445c-3.227-3.228-5.761-7.082-7.446-11.327s-2.485-8.791-2.351-13.358c0.134-4.566 1.201-9.057 3.132-13.196s4.688-7.837 8.099-10.869c0.855-0.76 1.683-1.551 2.482-2.371l2.434-2.497c16.102-16.463 26.898-37.374 30.999-60.033 4.017-22.196 1.428-45.073-7.429-65.795-8.156-21.051-22.323-39.253-40.753-52.33-18.814-13.348-41.204-20.739-64.268-21.212l-0.984-0.010h-3.643c-8.865 0-17.37-3.523-23.644-9.798-6.275-6.276-9.802-14.793-9.802-23.676s3.528-17.4 9.802-23.677c6.273-6.276 14.779-9.798 23.644-9.798h7.407c22.705-0.148 44.865-6.975 63.719-19.625s33.571-30.566 42.32-51.517c8.749-20.948 11.146-44.008 6.893-66.312s-14.97-42.861-30.817-59.117l-0.422-0.435-2.431-2.426c-0.666-0.666-1.351-1.312-2.055-1.939-3.411-3.034-6.167-6.733-8.099-10.867-1.932-4.141-2.998-8.634-3.132-13.197-0.134-4.57 0.666-9.114 2.351-13.357 1.685-4.25 4.22-8.102 7.446-11.328 3.227-3.232 7.078-5.76 11.316-7.45 4.239-1.683 8.776-2.477 13.334-2.349 4.557 0.134 9.041 1.203 13.173 3.13 4.133 1.933 7.829 4.691 10.86 8.102 0.626 0.704 1.272 1.389 1.937 2.054l2.799 2.803c16.458 16.102 37.368 26.906 60.029 31.008 22.157 4.013 44.993 1.44 65.685-7.386 21.087-8.077 39.345-22.182 52.49-40.563 13.443-18.803 20.918-41.216 21.455-64.326l0.013-1.114v-3.648c0-8.883 3.528-17.395 9.802-23.674s14.779-9.798 23.644-9.798c8.865 0 17.37 3.52 23.644 9.798s9.802 14.79 9.802 23.674v7.219c0.148 22.707 6.968 44.864 19.612 63.718 12.643 18.861 30.554 33.587 51.503 42.342 20.947 8.755 44.013 11.149 66.317 6.893s42.861-14.976 59.11-30.835l0.435-0.422 2.426-2.432c0.666-0.666 1.312-1.35 1.939-2.054 3.027-3.411 6.726-6.17 10.861-8.096 4.128-1.933 8.614-2.995 13.171-3.13s9.094 0.666 13.331 2.349c4.243 1.683 8.090 4.218 11.322 7.443 3.226 3.226 5.76 7.085 7.443 11.328s2.483 8.794 2.349 13.357c-0.134 4.57-1.197 9.056-3.13 13.197s-4.691 7.84-8.096 10.867c-0.704 0.627-1.395 1.274-2.061 1.939l-2.797 2.803c-16.102 16.461-26.893 37.376-30.995 60.032-4.090 22.586-1.338 45.878 7.904 66.886 8.909 20.57 23.629 38.096 42.355 50.424 18.79 12.37 40.794 18.964 63.296 18.968h3.648c8.864 0 17.37 3.523 23.642 9.798 6.278 6.276 9.805 14.793 9.805 23.676s-3.526 17.4-9.805 23.677c-6.272 6.276-14.778 9.798-23.642 9.798h-7.085c-22.464 0.086-44.416 6.744-63.149 19.15-18.726 12.406-33.421 30.020-42.266 50.669-1.722 4.017-2.88 8.241-3.456 12.553-6.304 18.493-7.814 38.344-4.314 57.677 4.096 22.659 14.893 43.57 30.995 60.033l0.365 0.375 2.432 2.428c0.666 0.666 1.35 1.312 2.054 1.938 3.411 3.032 6.17 6.731 8.102 10.869 1.926 4.138 2.995 8.629 3.13 13.196s-0.666 9.112-2.349 13.357c-1.69 4.245-4.224 8.1-7.45 11.328s-7.078 5.761-11.315 7.445c-4.237 1.683-8.774 2.483-13.331 2.348-4.563-0.134-9.043-1.199-13.178-3.129-4.128-1.93-7.827-4.686-10.861-8.099-0.621-0.704-1.267-1.389-1.933-2.056l-2.861-2.858c-16.25-15.853-36.813-26.575-59.117-30.832-22.298-4.257-45.363-1.857-66.312 6.898s-38.86 23.48-51.503 42.337c-12.644 18.858-19.463 41.017-19.611 63.72l-0.003 0.314 0.001 3.644c0 8.884-3.528 17.4-9.802 23.677s-14.779 9.798-23.644 9.798zM420.558 906.072c24.274 24.283 57.201 37.928 91.538 37.928s67.263-13.645 91.538-37.928c24.274-24.283 37.908-57.213 37.908-91.547v-3.441c0.045-3.841 1.21-7.585 3.347-10.774 2.157-3.22 5.216-5.731 8.787-7.222s7.501-1.901 11.296-1.176c3.731 0.712 7.181 2.486 9.926 5.11l1.267 1.267c11.52 12.653 25.434 22.902 40.947 30.148 15.987 7.468 33.338 11.589 50.976 12.108s35.2-2.573 51.597-9.088c16.403-6.515 31.296-16.313 43.776-28.794 12.474-12.48 22.266-27.379 28.781-43.78 6.509-16.402 9.6-33.961 9.082-51.599-0.525-17.638-4.64-34.985-12.102-50.975-7.245-15.515-17.485-29.434-30.131-40.958l-1.306-1.304c-2.611-2.721-4.365-6.154-5.037-9.871-0.685-3.779-0.218-7.676 1.331-11.186 1.222-2.763 2.176-5.627 2.854-8.554 1.242-1.557 2.726-2.92 4.403-4.030 3.098-2.052 6.72-3.158 10.432-3.185h6.784c34.336 0 67.264-13.645 91.539-37.928s37.907-57.213 37.907-91.547c0-34.333-13.632-67.264-37.907-91.546s-57.203-37.926-91.539-37.926h-3.635c-3.738-0.006-7.398-1.101-10.522-3.155-3.13-2.061-5.587-4.992-7.072-8.435l-0.173-0.41c-1.555-3.514-2.022-7.405-1.338-11.187 0.672-3.718 2.426-7.149 5.037-9.869l1.306-1.306c12.646-11.526 22.893-25.446 30.131-40.96 7.462-15.987 11.584-33.338 12.102-50.976s-2.573-35.194-9.082-51.597c-6.509-16.403-16.307-31.302-28.781-43.782s-27.373-22.278-43.77-28.794c-16.403-6.515-33.958-9.606-51.603-9.088-17.638 0.525-34.982 4.64-50.976 12.109-15.507 7.245-29.427 17.498-40.947 30.15l-1.267 1.267c-2.746 2.624-6.195 4.397-9.92 5.107-3.802 0.73-7.731 0.32-11.302-1.171s-6.624-4.006-8.787-7.226c-2.138-3.187-3.302-6.931-3.347-10.771v-6.707c0-34.33-13.633-67.264-37.907-91.546s-57.201-37.926-91.538-37.926c-34.337 0-67.264 13.645-91.539 37.926s-37.908 57.216-37.908 91.546v2.918c-0.161 3.718-1.398 7.309-3.562 10.336-2.239 3.13-5.367 5.517-8.974 6.842-0.961 0.352-1.909 0.736-2.845 1.152-3.503 1.549-7.388 2.010-11.154 1.331-3.707-0.672-7.134-2.426-9.853-5.037l-1.304-1.306c-11.519-12.653-25.436-22.899-40.948-30.144-15.989-7.469-33.336-11.59-50.975-12.109s-35.199 2.573-51.599 9.088c-16.401 6.515-31.296 16.314-43.772 28.794s-22.269 27.379-28.78 43.782c-6.51 16.397-9.601 33.958-9.082 51.597s4.636 34.982 12.1 50.976c7.242 15.514 17.485 29.434 30.134 40.96l1.267 1.267c2.623 2.746 4.401 6.202 5.115 9.939 0.727 3.814 0.317 7.75-1.178 11.334-1.494 3.578-4.007 6.637-7.222 8.794-3.184 2.131-6.919 3.296-10.748 3.341h-6.891c-34.337 0-67.263 13.646-91.538 37.929s-37.908 57.213-37.908 91.547c0 34.333 13.634 67.264 37.908 91.546 24.275 24.284 57.201 37.928 91.538 37.928h3.001c3.712 0.143 7.307 1.363 10.344 3.518 3.13 2.221 5.524 5.333 6.87 8.936 0.329 0.881 0.684 1.752 1.064 2.612 1.551 3.51 2.015 7.407 1.332 11.185s-2.484 7.263-5.165 10.004l-0.058 0.060-1.432 1.469c-12.534 11.479-22.69 25.317-29.883 40.729-7.464 15.99-11.581 33.337-12.1 50.975s2.572 35.197 9.082 51.599c6.51 16.401 16.303 31.3 28.78 43.78s27.371 22.279 43.772 28.794c16.401 6.515 33.96 9.607 51.599 9.088s34.986-4.641 50.975-12.109c15.512-7.246 29.429-17.494 40.948-30.147l1.304-1.304c2.719-2.611 6.147-4.362 9.853-5.033 3.766-0.682 7.652-0.22 11.154 1.33 2.762 1.221 5.625 2.176 8.55 2.856 1.555 1.242 2.915 2.724 4.026 4.402 2.054 3.103 3.163 6.739 3.189 10.464v7.037c0 34.333 13.634 67.264 37.908 91.547z" />
<glyph unicode="&#xe907;" glyph-name="dashboard" d="M170.667 874.667c-39.274 0-71.111-31.837-71.111-71.111v-682.667c0-39.276 31.837-71.111 71.111-71.111h682.667c39.276 0 71.111 31.835 71.111 71.111v682.667c0 39.274-31.835 71.111-71.111 71.111h-682.667zM14.222 803.556c0 86.402 70.043 156.444 156.444 156.444h682.667c86.403 0 156.444-70.043 156.444-156.444v-682.667c0-86.403-70.042-156.444-156.444-156.444h-682.667c-86.402 0-156.444 70.042-156.444 156.444v682.667zM14.222 601.998c0 23.564 19.102 42.667 42.667 42.667h910.222c23.563 0 42.667-19.103 42.667-42.667s-19.103-42.667-42.667-42.667h-910.222c-23.564 0-42.667 19.103-42.667 42.667zM355.044 644.665c23.564 0 42.667-19.103 42.667-42.667v-591.644c0-23.563-19.103-42.667-42.667-42.667s-42.667 19.103-42.667 42.667v591.644c0 23.564 19.102 42.667 42.667 42.667z" />
<glyph unicode="&#xe908;" glyph-name="edit" d="M430.52 27.911c0 30.303 24.56 54.857 54.857 54.857h430.517c30.296 0 54.857-24.554 54.857-54.857 0-30.296-24.561-54.857-54.857-54.857h-430.517c-30.297 0-54.857 24.561-54.857 54.857zM772.389 792.063c-12.361 0-24.218-4.912-32.965-13.654l-587.195-587.199-21.976-87.903 87.902 21.979 587.2 587.196c4.33 4.329 7.76 9.468 10.101 15.124 2.348 5.655 3.555 11.717 3.555 17.84s-1.207 12.183-3.555 17.84c-2.341 5.655-5.771 10.794-10.101 15.124s-9.472 7.762-15.126 10.105c-5.654 2.343-11.717 3.549-17.84 3.549zM661.847 855.989c29.318 29.318 69.081 45.788 110.542 45.788 20.531 0 40.858-4.044 59.824-11.9 18.973-7.857 36.206-19.371 50.717-33.888 14.519-14.517 26.039-31.751 33.894-50.718s11.9-39.295 11.9-59.825c0-20.53-4.045-40.859-11.9-59.826s-19.376-36.201-33.894-50.717l-597.939-597.944c-7.030-7.029-15.84-12.017-25.485-14.431l-191.342-47.835c-18.694-4.674-38.469 0.805-52.095 14.431s-19.103 33.404-14.429 52.092l47.835 191.345c2.411 9.645 7.399 18.455 14.429 25.485l597.943 597.943z" />
<glyph unicode="&#xe909;" glyph-name="excel" horiz-adv-x="896" d="M37.568 830.31l549.632 78.528c3.1 0.439 6.257 0.209 9.26-0.676s5.781-2.404 8.147-4.454c2.365-2.050 4.264-4.584 5.567-7.431s1.98-5.94 1.986-9.071v-911.615c-0.007-3.123-0.683-6.214-1.982-9.056s-3.191-5.37-5.549-7.418c-2.359-2.048-5.129-3.571-8.124-4.461s-6.146-1.126-9.241-0.698l-549.76 78.464c-10.388 1.491-19.894 6.669-26.78 14.586-6.886 7.923-10.692 18.054-10.724 28.55v711.487c0.003 10.527 3.805 20.698 10.707 28.646s16.439 13.139 26.861 14.618zM655.936 824.934h174.912c11.59 0 22.714-4.605 30.912-12.803 8.192-8.198 12.8-19.316 12.8-30.909v-699.647c0-11.59-4.608-22.714-12.8-30.912-8.198-8.192-19.322-12.8-30.912-12.8h-174.976l0.064 787.071zM358.4 431.398l122.56 174.912h-104.896l-70.016-99.968-69.952 99.968h-104.96l122.496-174.912-122.496-174.911h104.96l69.952 99.967 69.952-99.967h104.96l-122.56 174.911z" />
<glyph unicode="&#xe90a;" glyph-name="eye" horiz-adv-x="1260" d="M630.223-47.931c370.768 0 609.99 416.215 619.994 433.859 6.624 11.785 10.106 25.077 10.106 38.597s-3.482 26.811-10.106 38.597c-9.846 17.723-247.335 434.176-619.994 434.176-374.548 0-610.383-416.61-620.229-434.333-6.554-11.737-9.994-24.957-9.994-38.4s3.44-26.663 9.994-38.4c10.082-17.644 247.572-434.096 620.229-434.096zM630.223 739.76c223.627 0 396.683-223.311 458.281-315.077-61.755-91.845-234.811-315.075-458.281-315.075-223.468 0-396.839 223.546-458.358 315.075 61.204 91.766 233.551 315.077 458.358 315.077zM630.224 267.144c87.005 0 157.539 70.532 157.539 157.538s-70.534 157.538-157.539 157.538c-87.006 0-157.538-70.532-157.538-157.538s70.532-157.538 157.538-157.538z" />
<glyph unicode="&#xe90b;" glyph-name="file-dollar" horiz-adv-x="862" d="M39.195 920.805c25.096 25.096 59.134 39.195 94.625 39.195h373.491c10.716 0 20.994-4.255 28.574-11.831l280.415-280.253c7.583-7.581 11.846-17.866 11.846-28.59v-560.182c0-35.49-14.099-69.53-39.198-94.623-25.093-25.099-59.133-39.198-94.623-39.198h-560.505c-17.573 0-34.975 3.46-51.211 10.186s-30.988 16.583-43.415 29.012c-25.096 25.093-39.195 59.133-39.195 94.623v747.035c0 35.491 14.099 69.529 39.195 94.625zM133.821 879.158c-14.051 0-27.526-5.582-37.462-15.517s-15.517-23.411-15.517-37.462v-747.035c0-14.050 5.582-27.524 15.517-37.462 4.92-4.921 10.76-8.823 17.188-11.485s13.317-4.031 20.274-4.031h560.505c14.050 0 27.524 5.583 37.462 15.516 9.933 9.938 15.516 23.412 15.516 37.462v543.432l-256.729 256.582h-356.755zM507.311 960c22.324 0 40.421-18.097 40.421-40.421v-239.832h239.832c22.323 0 40.421-18.097 40.421-40.421s-18.098-40.421-40.421-40.421h-280.253c-22.324 0-40.421 18.097-40.421 40.421v280.253c0 22.324 18.098 40.421 40.422 40.421zM417.684 122.621v26.527c69.895 5.686 108.631 39.79 108.631 95.372 0 47.368-28.21 76.628-83.579 87.369l-25.052 4.63v65.471c18.105-2.943 31.368-17.473 32-34.105h70.737c-0.632 50.106-40.21 85.475-102.737 91.37v28.842h-30.316v-28.632c-68-5.053-107.158-39.157-107.158-93.683 0-46.107 28.211-76.423 82.105-88.215l25.052-5.47v-67.789c-22.526 2.312-38.737 16.842-39.789 35.366h-73.053c0.211-53.895 41.684-87.369 112.842-90.947v-26.107h30.316zM454.316 235.886c0-17.893-13.684-29.895-36.632-31.577v62.733c24.632-4.63 36.632-14.945 36.632-31.157zM354.105 372.941c0 16.212 13.684 28.209 33.263 29.475v-59.791c-21.684 4.419-33.263 14.945-33.263 30.316z" />
<glyph unicode="&#xe90c;" glyph-name="file-text" horiz-adv-x="819" d="M50.035 878.527c23.842 23.842 56.177 37.236 89.894 37.236h354.816c10.181 0 19.942-4.043 27.146-11.239l266.394-266.24c7.204-7.202 11.254-16.973 11.254-27.161v-532.172c0-33.715-13.394-66.053-37.238-89.897-23.839-23.839-56.177-37.233-89.892-37.233h-532.48c-16.695 0-33.226 3.287-48.65 9.677s-29.439 15.754-41.244 27.556c-23.841 23.844-37.235 56.182-37.235 89.897v709.683c0 33.717 13.394 66.053 37.235 89.894zM139.93 838.963c-13.348 0-26.15-5.303-35.589-14.742s-14.741-22.24-14.741-35.588v-709.683c0-13.348 5.303-26.153 14.741-35.589 4.674-4.675 10.222-8.381 16.328-10.911s12.651-3.83 19.26-3.83h532.48c13.348 0 26.148 5.304 35.589 14.74 9.436 9.436 14.74 22.241 14.74 35.589v516.26l-243.893 243.752h-338.917zM494.746 915.762c21.207 0 38.4-17.192 38.4-38.4v-227.84h227.84c21.207 0 38.4-17.192 38.4-38.4s-17.193-38.4-38.4-38.4h-266.241c-21.208 0-38.4 17.192-38.4 38.4v266.24c0 21.208 17.193 38.4 38.401 38.4zM190.208 389.478c0 21.207 17.192 38.4 38.4 38.4h354.867c21.207 0 38.4-17.193 38.4-38.4s-17.193-38.4-38.4-38.4h-354.867c-21.208 0-38.4 17.193-38.4 38.4zM190.208 212.070c0 21.207 17.192 38.4 38.4 38.4h354.867c21.207 0 38.4-17.193 38.4-38.4s-17.193-38.4-38.4-38.4h-354.867c-21.208 0-38.4 17.193-38.4 38.4zM190.208 566.886c0 21.208 17.192 38.4 38.4 38.4h88.73c21.208 0 38.4-17.192 38.4-38.4s-17.192-38.4-38.4-38.4h-88.73c-21.208 0-38.4 17.192-38.4 38.4z" />
<glyph unicode="&#xe90d;" glyph-name="hamburger" horiz-adv-x="1497" d="M0 818.529c0 43.503 35.266 78.769 78.769 78.769h1311.902c43.504 0 78.769-35.266 78.769-78.769s-35.265-78.769-78.769-78.769h-1311.902c-43.503 0-78.769 35.266-78.769 78.769zM0 30.838c0 43.504 35.266 78.769 78.769 78.769h1311.902c43.504 0 78.769-35.265 78.769-78.769s-35.265-78.769-78.769-78.769h-1311.902c-43.503 0-78.769 35.265-78.769 78.769zM283.49 424.683c0 43.503 35.266 78.769 78.769 78.769h1009.585c43.504 0 78.769-35.267 78.769-78.769s-35.265-78.769-78.769-78.769h-1009.585c-43.503 0-78.769 35.266-78.769 78.769zM86.567 514.085c15.579 0 30.808-4.62 43.762-13.275s23.049-20.957 29.011-35.35c5.962-14.394 7.522-30.232 4.482-45.511s-10.541-29.315-21.557-40.331c-11.017-11.017-25.052-18.519-40.331-21.558s-31.118-1.479-45.511 4.482c-14.393 5.962-26.695 16.058-35.351 29.011s-13.275 28.183-13.275 43.762c0 20.891 8.299 40.926 23.071 55.699s34.807 23.071 55.698 23.071z" />
<glyph unicode="&#xe90e;" glyph-name="house-dollar" horiz-adv-x="970" d="M435.991 951.491c14.594 11.346 35.025 11.346 49.619 0l420.377-326.818c9.852-7.658 15.613-19.435 15.613-31.912v-513.617c0-35.49-14.099-69.53-39.198-94.623-25.093-25.099-59.133-39.198-94.623-39.198h-653.959c-35.491 0-69.529 14.099-94.625 39.198-25.096 25.093-39.195 59.133-39.195 94.623v513.617c0 12.477 5.762 24.254 15.612 31.912l420.379 326.818zM80.842 572.987v-493.842c0-14.050 5.582-27.524 15.517-37.462 9.935-9.933 23.411-15.516 37.462-15.516h653.959c14.050 0 27.524 5.583 37.462 15.516 9.933 9.938 15.516 23.412 15.516 37.462v493.842l-379.958 295.393-379.958-295.393zM471.579 203.954v26.522c69.896 5.686 108.63 39.79 108.63 95.372 0 47.368-28.209 76.628-83.578 87.369l-25.052 4.63v65.474c18.105-2.948 31.368-17.474 32-34.106h70.734c-0.631 50.105-40.208 85.474-102.734 91.369v28.842h-30.316v-28.632c-68-5.053-107.158-39.158-107.158-93.684 0-46.105 28.211-76.421 82.105-88.208l25.052-5.476v-67.789c-22.526 2.312-38.737 16.842-39.789 35.366h-73.053c0.211-53.895 41.684-87.369 112.842-90.947v-26.101h30.316zM508.211 317.214c0-17.893-13.684-29.895-36.632-31.577v62.733c24.632-4.63 36.632-14.945 36.632-31.157zM408 454.267c0 16.21 13.684 28.211 33.263 29.474v-59.79c-21.684 4.421-33.263 14.948-33.263 30.316z" />
<glyph unicode="&#xe90f;" glyph-name="life-ring" d="M430.536 829.049c-73.788-15.109-141.514-51.555-194.772-104.813s-89.704-120.984-104.813-194.772l-79.199 16.217c18.285 89.3 62.393 171.264 126.848 235.719s146.419 108.562 235.719 126.847l16.217-79.199zM130.951 375.916c15.115-73.787 51.563-141.511 104.821-194.765 53.258-53.259 120.981-89.708 194.767-104.825l-16.223-79.193c-89.296 18.292-171.255 62.399-235.708 126.852s-108.562 146.41-126.854 235.709l79.198 16.222zM778.849 181.151c53.259 53.253 89.708 120.978 104.825 194.765l79.193-16.222c-18.292-89.298-62.399-171.256-126.852-235.709s-146.41-108.56-235.709-126.852l-16.222 79.193c73.787 15.117 141.511 51.566 194.765 104.825zM778.849 724.229c-53.253 53.258-120.978 89.706-194.765 104.821l16.222 79.197c89.298-18.292 171.256-62.401 235.709-126.854s108.56-146.412 126.852-235.708l-79.193-16.223c-15.117 73.786-51.566 141.51-104.825 194.767zM382.006 960h250.611v-312.751h-80.842v231.909h-88.926v-231.909h-80.842v312.751zM933.78 497.152h-231.909v80.842h312.751v-250.611h-312.751v80.842h231.909v88.926zM462.848 26.22v231.909h-80.842v-312.751h250.611v312.751h-80.842v-231.909h-88.926zM0 577.994h312.751v-80.842h-231.909v-88.926h231.909v-80.842h-312.751v250.611zM507.365 627.147c-106.619 0-193.051-86.432-193.051-193.051 0-106.62 86.432-193.051 193.051-193.051 106.62 0 193.051 86.431 193.051 193.051s-86.431 193.051-193.051 193.051zM233.472 434.096c0 151.267 122.626 273.893 273.893 273.893s273.893-122.626 273.893-273.893c0-151.267-122.627-273.894-273.893-273.894s-273.893 122.627-273.893 273.894z" />
<glyph unicode="&#xe910;" glyph-name="line-up" horiz-adv-x="1676" d="M1594.117 925.772c27.266-27.266 27.266-71.472 0-98.738l-626.874-626.874c-13.089-13.093-30.85-20.449-49.366-20.449s-36.276 7.356-49.369 20.449l-280.545 280.545-445.502-445.502c-27.265-27.263-71.472-27.263-98.738 0-27.266 27.265-27.266 71.472 0 98.738l494.871 494.871c13.093 13.093 30.852 20.449 49.369 20.449s36.276-7.356 49.369-20.449l280.545-280.545 577.508 577.505c27.266 27.266 71.466 27.266 98.732 0zM1079.017 876.403c0 38.559 31.26 69.818 69.818 69.818h395.916c38.558 0 69.818-31.259 69.818-69.818v-395.916c0-38.559-31.26-69.818-69.818-69.818s-69.818 31.259-69.818 69.818v326.097h-326.097c-38.558 0-69.818 31.259-69.818 69.818z" />
<glyph unicode="&#xe911;" glyph-name="logout" d="M177.664 832c-7.514 0-14.72-2.985-20.033-8.298s-8.298-12.519-8.298-20.033v-646.229c0-7.514 2.985-14.72 8.298-20.033s12.519-8.298 20.033-8.298h184.661c35.346 0 64-28.655 64-64s-28.654-64-64-64h-184.661c-41.462 0-81.225 16.469-110.543 45.79-29.318 29.312-45.788 69.079-45.788 110.541v646.229c0 41.462 16.471 81.225 45.788 110.543s69.081 45.788 110.543 45.788h184.661c35.346 0 64-28.654 64-64s-28.654-64-64-64h-184.661zM640.311 756.677c25.039 24.947 65.562 24.872 90.51-0.167l230.4-231.253c24.917-25.007 24.875-65.465-0.085-90.426l-230.398-230.4c-24.993-24.993-65.516-24.993-90.51 0s-24.993 65.516 0 90.51l185.229 185.229-185.312 185.999c-24.947 25.039-24.872 65.562 0.167 90.51zM298.325 480.512c0 35.346 28.654 64 64 64h553.984c35.345 0 64-28.654 64-64s-28.655-64-64-64h-553.984c-35.346 0-64 28.653-64 64z" />
<glyph unicode="&#xe912;" glyph-name="magnifier" horiz-adv-x="956" d="M426.667 803.258c-179.087 0-324.267-145.179-324.267-324.267s145.179-324.265 324.267-324.265c179.087 0 324.267 145.178 324.267 324.265s-145.179 324.267-324.267 324.267zM0 478.992c0 235.642 191.025 426.667 426.667 426.667s426.667-191.025 426.667-426.667c0-235.642-191.025-426.665-426.667-426.665s-426.667 191.024-426.667 426.665zM672.2 233.458c19.997 19.995 52.417 19.995 72.405 0l187.733-187.733c19.995-19.995 19.995-52.415 0-72.41-19.988-19.988-52.408-19.988-72.404 0l-187.735 187.74c-19.995 19.988-19.995 52.408 0 72.404z" />
<glyph unicode="&#xe913;" glyph-name="plus" d="M512 956.858c28.277 0 51.2-22.923 51.2-51.2v-887.465c0-28.276-22.923-51.2-51.2-51.2s-51.2 22.924-51.2 51.2v887.465c0 28.277 22.923 51.2 51.2 51.2zM17.067 461.925c0 28.277 22.923 51.2 51.2 51.2h887.467c28.276 0 51.2-22.923 51.2-51.2s-22.924-51.2-51.2-51.2h-887.467c-28.277 0-51.2 22.923-51.2 51.2z" />
<glyph unicode="&#xe914;" glyph-name="star" d="M771.23-60.377c-8.039 0-15.959 1.946-23.080 5.671l-252.533 132.805-252.613-132.805c-8.183-4.309-17.41-6.239-26.634-5.577s-18.081 3.891-25.564 9.326c-7.484 5.435-13.297 12.855-16.782 21.425-3.485 8.562-4.502 17.936-2.937 27.049l48.207 281.286-204.327 199.207c-6.624 6.454-11.308 14.635-13.524 23.613s-1.874 18.4 0.987 27.194c2.861 8.795 8.126 16.614 15.2 22.571s15.674 9.817 24.828 11.14l282.388 41.039 126.031 255.921c4.572 7.723 11.077 14.122 18.873 18.567s16.617 6.783 25.592 6.783c8.974 0 17.795-2.338 25.591-6.783s14.301-10.844 18.873-18.567l126.031-255.921 282.388-41.039c9.153-1.323 17.755-5.182 24.828-11.14s12.335-13.776 15.202-22.571c2.859-8.795 3.198-18.215 0.985-27.194s-6.9-17.159-13.525-23.613l-203.776-199.207 48.207-281.286c1.213-7.105 0.866-14.399-1.032-21.354-1.89-6.963-5.285-13.43-9.933-18.936-4.655-5.514-10.453-9.949-16.991-12.989-6.542-3.040-13.747-4.616-20.96-4.616z" />
<glyph unicode="&#xe915;" glyph-name="times" horiz-adv-x="910" d="M876.898 836.106c44.432-44.434 44.432-116.473 0-160.907l-682.667-682.667c-44.434-44.432-116.474-44.432-160.906 0-44.433 44.434-44.433 116.473 0 160.907l682.666 682.667c44.434 44.433 116.473 44.433 160.907 0zM33.325 836.106c44.433 44.433 116.473 44.433 160.906 0l682.667-682.667c44.432-44.434 44.432-116.473 0-160.907-44.434-44.432-116.473-44.432-160.907 0l-682.666 682.667c-44.433 44.434-44.433 116.473 0 160.907z" />
<glyph unicode="&#xe916;" glyph-name="trash" horiz-adv-x="956" d="M17.067 731.306c0 28.277 22.923 51.2 51.2 51.2h798.72c28.276 0 51.2-22.923 51.2-51.2s-22.924-51.2-51.2-51.2h-798.72c-28.277 0-51.2 22.923-51.2 51.2zM378.879 857.6c-9.958 0-19.509-3.956-26.55-10.997s-10.997-16.592-10.997-26.55v-37.547h252.587v37.547c0 9.958-3.956 19.508-10.997 26.55s-16.592 10.997-26.55 10.997h-177.493zM696.32 782.507h81.92c28.276 0 51.2-22.923 51.2-51.2v-621.227c0-37.117-14.746-72.711-40.987-98.959-26.249-26.242-61.843-40.987-98.959-40.987h-443.734c-37.117 0-72.712 14.746-98.957 40.987-26.245 26.249-40.989 61.843-40.989 98.959v621.227c0 28.277 22.923 51.2 51.2 51.2h81.92v37.547c0 37.116 14.744 72.712 40.989 98.957s61.841 40.989 98.957 40.989h177.493c37.116 0 72.712-14.744 98.957-40.989s40.99-61.841 40.99-98.957v-37.547zM208.213 680.107v-570.027c0-9.96 3.955-19.511 10.997-26.549 7.041-7.045 16.592-10.998 26.55-10.998h443.734c9.96 0 19.511 3.953 26.549 10.998 7.038 7.038 10.998 16.589 10.998 26.549v570.027h-518.827zM378.879 560.639c28.277 0 51.2-22.923 51.2-51.2v-266.239c0-28.276-22.923-51.2-51.2-51.2s-51.2 22.924-51.2 51.2v266.239c0 28.277 22.923 51.2 51.2 51.2zM556.373 560.639c28.277 0 51.2-22.923 51.2-51.2v-266.239c0-28.276-22.923-51.2-51.2-51.2s-51.2 22.924-51.2 51.2v266.239c0 28.277 22.923 51.2 51.2 51.2z" />
<glyph unicode="&#xe917;" glyph-name="user-plus" horiz-adv-x="1161" d="M87.368 309.294c45.014 45.013 106.065 70.302 169.724 70.302h330.411c63.659 0 124.71-25.289 169.725-70.302s70.301-106.065 70.301-169.723v-94.413c0-28.276-22.924-51.2-51.2-51.2s-51.2 22.924-51.2 51.2v94.413c0 36.502-14.5 71.503-40.311 97.314-25.808 25.812-60.813 40.311-97.314 40.311h-330.411c-36.501 0-71.506-14.5-97.316-40.311s-40.309-60.812-40.309-97.314v-94.413c0-28.276-22.923-51.2-51.2-51.2s-51.2 22.924-51.2 51.2v94.413c0 63.659 25.288 124.71 70.302 169.723zM422.298 843.673c-76.008 0-137.626-61.617-137.626-137.626s61.617-137.626 137.626-137.626c76.009 0 137.626 61.617 137.626 137.626s-61.617 137.626-137.626 137.626zM182.273 706.047c0 132.562 107.463 240.026 240.026 240.026s240.026-107.463 240.026-240.026c0-132.562-107.463-240.026-240.026-240.026s-240.026 107.463-240.026 240.026zM965.154 710.075c28.276 0 51.2-22.923 51.2-51.2v-283.238c0-28.277-22.924-51.2-51.2-51.2s-51.2 22.923-51.2 51.2v283.238c0 28.277 22.924 51.2 51.2 51.2zM772.369 517.222c0 28.277 22.924 51.2 51.2 51.2h283.238c28.276 0 51.2-22.923 51.2-51.2s-22.924-51.2-51.2-51.2h-283.238c-28.276 0-51.2 22.923-51.2 51.2z" />
<glyph unicode="&#xe918;" glyph-name="users" horiz-adv-x="1132" d="M66.535 266.881c42.602 42.604 100.383 66.538 160.631 66.538h373.76c60.2-0.070 117.965-24.032 160.509-66.63 42.545-42.593 66.441-100.336 66.441-160.536v-93.507c0-22.323-18.098-40.421-40.421-40.421s-40.421 18.098-40.421 40.421v93.507c0 38.777-15.392 75.97-42.798 103.408-27.4 27.432-64.566 42.868-103.338 42.916h-373.733c-38.807 0-76.026-15.419-103.467-42.857-27.442-27.443-42.858-64.658-42.858-103.467v-93.507c0-22.323-18.097-40.421-40.421-40.421s-40.421 18.098-40.421 40.421v93.507c0 60.249 23.934 118.029 66.535 160.628zM390.737 836.257c-81.854 0-148.211-66.356-148.211-148.211s66.356-148.211 148.211-148.211c81.854 0 148.211 66.356 148.211 148.211s-66.356 148.211-148.211 148.211zM161.684 688.046c0 126.502 102.55 229.053 229.053 229.053s229.053-102.55 229.053-229.053c0-126.502-102.55-229.053-229.053-229.053s-229.053 102.55-229.053 229.053zM888.39 297.052c5.573 21.617 27.616 34.627 49.227 29.049 48.759-12.568 91.961-40.976 122.81-80.767 30.855-39.79 47.616-88.705 47.648-139.054v-93.373c0-22.323-18.098-40.421-40.421-40.421s-40.421 18.098-40.421 40.421v93.319c-0.022 32.428-10.817 63.941-30.688 89.568-19.876 25.632-47.702 43.93-79.107 52.025-21.617 5.573-34.622 27.616-29.049 49.233zM701.623 857.211c5.53 21.628 27.546 34.678 49.174 29.148 48.883-12.499 92.209-40.914 123.149-80.764 30.946-39.85 47.74-88.868 47.74-139.321s-16.794-99.471-47.74-139.322c-30.941-39.85-74.267-68.266-123.149-80.764-21.628-5.53-43.644 7.52-49.174 29.148s7.518 43.644 29.146 49.175c31.485 8.050 59.397 26.353 79.328 52.022s30.747 57.243 30.747 89.741c0 32.498-10.817 64.072-30.747 89.741s-47.842 43.972-79.328 52.022c-21.628 5.53-34.676 27.546-29.146 49.175z" />
</font>
</defs>
</svg>
